<?xml version="1.0" encoding="UTF-8"?>
<svg width="40px" height="40px" viewBox="0 0 40 40" version="1.1" xmlns="http://www.w3.org/2000/svg" xmlns:xlink="http://www.w3.org/1999/xlink">
    <!-- Generator: Sketch 49.1 (51147) - http://www.bohemiancoding.com/sketch -->
    <title>hashtag</title>
    <desc>Created with Sketch.</desc>
    <defs></defs>
    <g id="Page-1" stroke="none" stroke-width="1" fill="none" fill-rule="evenodd">
        <g id="Desktop" transform="translate(-929.000000, -46.000000)" fill="#0000FF" fill-rule="nonzero">
            <g id="hashtag" transform="translate(929.000000, 46.000000)">
                <path d="M14.587385,40 C15.3977403,39.9915797 16.1712626,39.6601695 16.7364722,39.0792388 C17.3164115,38.5158415 17.6442395,37.7419977 17.6455551,36.9333324 L17.6683772,33.1285339 C17.6635135,32.7365656 17.8171388,32.3592511 18.094391,32.0822143 C18.3722753,31.8109815 18.7445473,31.6582102 19.1327994,31.6560769 L20.8558729,31.6560769 C20.9086567,31.6460907 20.9628442,31.6460907 21.015628,31.6560769 C21.3496867,31.6863281 21.6629111,31.8315558 21.9018887,32.0669951 C22.1729312,32.3441248 22.3280236,32.7142775 22.3355099,33.1019003 L22.3355099,35.3847794 C22.3344959,36.2057938 22.6586275,36.9937855 23.2369854,37.5763434 C23.8080198,38.1490825 24.5850462,38.4684823 25.3936799,38.4628614 L28.5735682,38.4628614 C29.3799216,38.4423056 30.1460592,38.1062547 30.7074406,37.526881 C31.2919455,36.9658901 31.6287141,36.1949317 31.6431493,35.3847794 L31.6431493,33.1247291 C31.6400798,32.733276 31.7941824,32.3569642 32.0709096,32.0801566 C32.3476369,31.803349 32.7238395,31.6492017 33.1151789,31.6522721 L35.3745732,31.6522721 C36.1858942,31.6272432 36.9560479,31.2890953 37.5236604,30.708682 C38.0993545,30.1504361 38.4315186,29.3874675 38.447958,28.5856045 L38.447958,25.4200121 C38.4637358,24.6025082 38.1433444,23.8143641 37.5616973,23.2398626 C36.9796249,22.6636605 36.1934892,22.3409094 35.3745732,22.3419301 L33.1227863,22.3419301 C32.3056054,22.3419301 31.6431493,21.6792817 31.6431493,20.8618635 L31.6431493,19.1458994 C31.6411025,18.7551037 31.7956565,18.3797766 32.0722715,18.1037963 C32.3488865,17.8278159 32.7245033,17.6741887 33.1151789,17.6772472 L36.918873,17.6772472 C38.6035668,17.6509804 39.9652664,16.2956118 39.9998652,14.6105796 L39.9998652,11.4449872 C40.0075068,10.6297533 39.6899082,9.84511185 39.1174082,9.26483765 C38.5321508,8.68922527 37.743442,8.36790744 36.9226767,8.37071 L33.0923568,8.37071 C32.3524774,8.3419851 31.7407001,7.78464028 31.6431493,7.05044492 C31.6431493,7.00098254 31.6431493,6.94771536 31.6431493,6.90586257 L31.6431493,3.07443047 C31.6566608,2.25921194 31.3380981,1.47356194 30.7606923,0.898085728 C30.1732785,0.322941133 29.3841388,0.00063829118 28.5621571,0.000153279957 L25.4088947,0.000153279957 C24.5926217,-0.00803550605 23.8072881,0.312181639 23.229352,0.888854553 C22.651416,1.46552747 22.3293465,2.25029304 22.3355099,3.06682088 L22.3355099,6.90205777 C22.3387435,6.95273686 22.3387435,7.00357063 22.3355099,7.05424971 C22.2994054,7.38904233 22.1551882,7.70293946 21.9247109,7.94837736 C21.6784101,8.18388164 21.3617815,8.33221911 21.0232354,8.37071 C20.9700562,8.37464029 20.9166595,8.37464029 20.8634803,8.37071 L19.1251921,8.37071 C18.7381876,8.37073133 18.3672514,8.21591569 18.0950307,7.94075712 C17.8228099,7.66559855 17.6719216,7.29295803 17.6759846,6.90586257 L17.6759846,4.66103145 C17.6781189,3.83531723 17.3541207,3.04218013 16.7745091,2.45424832 C16.192518,1.87838159 15.4060015,1.55684237 14.587385,1.56012067 L11.4113004,1.56012067 C10.5968827,1.55541933 9.81456966,1.87748053 9.23939112,2.45424832 C8.67355185,3.03799697 8.3605787,3.82134056 8.36834517,4.63439786 L8.36834517,6.91727697 C8.37588939,6.96900209 8.37588939,7.02154859 8.36834517,7.07327371 C8.3155676,7.39832542 8.16726751,7.70030969 7.94233143,7.94076777 C7.70641749,8.17216929 7.40237585,8.32156645 7.07508918,8.3669052 C7.02060401,8.38211625 6.96429405,8.38979711 6.90772664,8.38973399 L4.62551019,8.38973399 C3.80846239,8.38567539 3.02359603,8.70802344 2.44513516,9.28522356 C1.86667429,9.86242367 1.54248046,10.6467186 1.54451797,11.4640112 L1.54451797,14.6105796 C1.54350691,15.4282564 1.86778583,16.2127341 2.44580327,16.7909194 C3.02382071,17.3691046 3.80807071,17.6934777 4.62551019,17.6924663 L6.90772664,17.6924663 C7.70144905,17.7023564 8.34596042,18.3369815 8.36834517,19.1306802 L8.36834517,20.8694731 C8.36777391,20.9235107 8.36010074,20.9772385 8.34552301,21.0292746 C8.31821505,21.3637888 8.17571301,21.6784601 7.94233143,21.9195975 C7.69660303,22.1508647 7.38340695,22.2975097 7.04846332,22.3381253 C6.99782442,22.3420792 6.94695446,22.3420792 6.89631556,22.3381253 L3.06599561,22.3381253 C2.25135425,22.3244371 1.46658706,22.644759 0.894086283,23.2246434 C0.31275314,23.8046214 -0.00960659256,24.5949751 0.000218171953,25.4162073 L0.000218171953,28.5741901 C-0.00550266417,29.3901607 0.316543099,30.1742614 0.894086283,30.7505348 C1.45979455,31.3274646 2.23530531,31.6501159 3.04317344,31.6446625 L6.87349339,31.6446625 C7.26407049,31.6364227 7.64134917,31.7866809 7.9193759,32.0612045 C8.19740263,32.3357281 8.35249774,32.7111358 8.3493267,33.1019003 L8.37214887,36.9066988 C8.36813819,37.7264649 8.68644778,38.514954 9.25840959,39.1020676 C9.84007026,39.6719139 10.6237907,39.9879557 11.4379263,39.980976 L14.587385,40 Z M19.1251921,22.3419301 C18.3468447,22.3145931 17.7148081,21.7037207 17.6607698,20.9265451 L17.6607698,19.1382898 C17.6629088,18.7484404 17.8187312,18.3751785 18.094391,18.0995798 C18.3678736,17.8263771 18.7386833,17.6730828 19.1251921,17.6734424 L20.8558729,17.6734424 C21.6291051,17.6958174 22.2624737,18.2949911 22.3279025,19.0659986 L22.3279025,20.8846923 C22.3315442,21.2704656 22.1809041,21.6416956 21.9094961,21.9157927 C21.6327347,22.1947848 21.2564014,22.3522062 20.8634803,22.3533445 L19.1251921,22.3419301 Z" id="Shape"></path>
            </g>
        </g>
    </g>
</svg>