<svg xmlns="http://www.w3.org/2000/svg" viewBox="0 0 214.26 58.27"><defs><style>.cls-1{fill:blue;}</style></defs><title>hashtag-type</title><g id="圖層_2" data-name="圖層 2"><g id="圖層_1-2" data-name="圖層 1"><path class="cls-1" d="M31.67,0H22.24a1.12,1.12,0,0,0-1.12,1.13V15.3a1.26,1.26,0,0,1-1.25,1.26H12.94a1.27,1.27,0,0,1-1.26-1.26V1.13A1.12,1.12,0,0,0,10.56,0H1.14a2.73,2.73,0,0,0-1,.24L0,.3V43.07c0,1.3.14,3.51,1.14,3.51h9.42a1.12,1.12,0,0,0,1.12-1.11V28.53a1.26,1.26,0,0,1,1.26-1.27h6.92a1.26,1.26,0,0,1,1.25,1.27V45.46a1.12,1.12,0,0,0,1.12,1.11h9.43a1.12,1.12,0,0,0,1.12-1.11V1.13A1.12,1.12,0,0,0,31.67,0Z"/><path class="cls-1" d="M54.41,45.21a.55.55,0,0,0,.53.44h8.45a.55.55,0,0,0,.6-.54.7.7,0,0,0,0-.18,1.06,1.06,0,0,1-.13-.4A41.15,41.15,0,0,1,63.43,38V27.39c0-9-4.36-13.55-13-13.55a23.51,23.51,0,0,0-11.31,2.64.5.5,0,0,0-.24.59l1.72,6.11a.53.53,0,0,0,.31.36l.19,0a.57.57,0,0,0,.29-.06,14,14,0,0,1,7.16-2,5.41,5.41,0,0,1,3.15.7,1.23,1.23,0,0,1,.52,1.36l0,.1a1.31,1.31,0,0,1-1.06.84c-9.1.66-14.31,5-14.31,11.9a9.47,9.47,0,0,0,9.59,9.78,10.86,10.86,0,0,0,6.05-1.68,1.18,1.18,0,0,1,.7-.21l.2,0a1.06,1.06,0,0,1,.33.09A1.36,1.36,0,0,1,54.41,45.21ZM53.21,34.76a3.51,3.51,0,0,1-3.55,3.72c-1.65,0-2.64-1.13-2.64-3,0-1.56.83-3.52,4.78-4h.12a1.33,1.33,0,0,1,.82.27l.1.09a1.3,1.3,0,0,1,.37.9Z"/><path class="cls-1" d="M172.24,45.27a.56.56,0,0,0,.51.38h8.46a.55.55,0,0,0,.59-.54.48.48,0,0,0,0-.19,1,1,0,0,1-.12-.41,42.12,42.12,0,0,1-.38-6.51V27.39c0-9-4.37-13.55-13-13.55A23.45,23.45,0,0,0,157,16.47a.53.53,0,0,0-.25.62l1.72,6.09a.55.55,0,0,0,.33.36l.18,0a.56.56,0,0,0,.25,0,14,14,0,0,1,7.2-2,5.25,5.25,0,0,1,3.14.71,1.23,1.23,0,0,1,.51,1.35,1.27,1.27,0,0,1-1.09.94c-9.1.66-14.28,5-14.28,11.9a9.46,9.46,0,0,0,9.56,9.78,10.81,10.81,0,0,0,6.06-1.67,1.21,1.21,0,0,1,.7-.21l.23,0a1.46,1.46,0,0,1,.32.09A1.31,1.31,0,0,1,172.24,45.27ZM171,34.76a3.51,3.51,0,0,1-3.53,3.72c-1.65,0-2.64-1.13-2.64-3,0-1.56.83-3.52,4.78-4h.11A1.25,1.25,0,0,1,171,32.74Z"/><path class="cls-1" d="M83.24,25.82a20.08,20.08,0,0,1-2.83-1.39,1.23,1.23,0,0,1-.56-1.24s0-.07,0-.09a1.29,1.29,0,0,1,1-1,4.88,4.88,0,0,1,.92-.1,11.42,11.42,0,0,1,5.1,1.4,1,1,0,0,0,.47.11,1,1,0,0,0,.41-.09,1,1,0,0,0,.55-.66l1.61-6.58a1,1,0,0,0-.54-1.11,19.33,19.33,0,0,0-8-1.69c-7.39,0-12.54,4.49-12.54,10.93,0,2.92,1.42,7,8.17,9.8,1.18.47,1.87.84,2.2,1l.12.06,0,0a1.27,1.27,0,0,1,.81.47l.06.09a1.31,1.31,0,0,1-.11,1.52l-.1.09a3.44,3.44,0,0,1-2.24.54,15.22,15.22,0,0,1-6.52-1.84,1,1,0,0,0-.5-.14,1.07,1.07,0,0,0-.39.08,1,1,0,0,0-.56.67l-1.61,6.75a1,1,0,0,0,.44,1.06,18.93,18.93,0,0,0,9.18,2.12c8.33,0,13.3-4,13.3-10.81C91.06,31.29,88.49,28,83.24,25.82Z"/><path class="cls-1" d="M114,13.57a10.21,10.21,0,0,0-4.8,1.15l-.13.05a1.3,1.3,0,0,1-.47.09,1.25,1.25,0,0,1-.63-.18,1.26,1.26,0,0,1-.62-1.08V2.32a1.12,1.12,0,0,0-1.11-1.12H96.8a1.11,1.11,0,0,0-1.12,1.12V45.46a1.12,1.12,0,0,0,1.12,1.11h9.43a1.12,1.12,0,0,0,1.11-1.11V27.28c0-3.22,1.78-3.7,2.84-3.7,1.75,0,2.63,1.59,2.63,4.72V45.46a1.12,1.12,0,0,0,1.13,1.11h9.42a1.13,1.13,0,0,0,1.14-1.11V27.72C124.5,14.94,117.16,13.57,114,13.57Z"/><path class="cls-1" d="M214,24.31c0-3.43.11-6,.21-8.11v-.26l0-.22,0-.72a.45.45,0,0,0-.13-.36.52.52,0,0,0-.39-.19h-8.15a.49.49,0,0,0-.47.33,1.33,1.33,0,0,1-.79.77l-.16,0-.24,0a1.24,1.24,0,0,1-.76-.26,8.49,8.49,0,0,0-5.06-1.5c-7.38,0-12.75,6.89-12.75,16.38,0,8.93,4.89,15.16,11.88,15.16a9.5,9.5,0,0,0,4.24-1,1.2,1.2,0,0,1,.59-.15,1.22,1.22,0,0,1,.78.25,1.29,1.29,0,0,1,.46,1.32c-.53,1.86-2,4.06-5.81,4.06a16.58,16.58,0,0,1-7.25-1.7.46.46,0,0,0-.25,0,.53.53,0,0,0-.24,0,.47.47,0,0,0-.27.35l-1.71,7.18a.49.49,0,0,0,.27.58,22.77,22.77,0,0,0,9.78,1.94c16.16,0,16.16-12.37,16.16-17Zm-10.48,8.36c0,4-2.12,4.63-3.38,4.63-3.12,0-4.24-3.72-4.24-7.19,0-4.69,1.71-7.73,4.35-7.73,2,0,3.27,1.75,3.27,4.45Z"/><path class="cls-1" d="M150.42,45.77l0-7.52a.54.54,0,0,0-.23-.41.66.66,0,0,0-.32-.09l-.14,0c-.9.22-6.8.22-6.86.22-2.35,0-2.84-1.72-2.84-4.3V24a1.26,1.26,0,0,1,1.27-1.25h9a.51.51,0,0,0,.52-.53V15.49a.52.52,0,0,0-.52-.52h-9A1.27,1.27,0,0,1,140,13.7V1.51a.6.6,0,0,0-.24-.46.92.92,0,0,0-.33-.06l-.19,0L130,3.64a.53.53,0,0,0-.4.49V13.7a1.12,1.12,0,0,1-.08.45v9.46a1.09,1.09,0,0,1,.08.44V34.88c0,8,3.26,11.9,10,11.9,4.43,0,9.46-.17,10.5-.5A.53.53,0,0,0,150.42,45.77Z"/></g></g></svg>